<?xml version="1.0" standalone="no"?>
<!DOCTYPE svg PUBLIC "-//W3C//DTD SVG 20010904//EN"
 "http://www.w3.org/TR/2001/REC-SVG-20010904/DTD/svg10.dtd">
<svg version="1.0" xmlns="http://www.w3.org/2000/svg"
 width="748.000000pt" height="748.000000pt" viewBox="0 0 748.000000 748.000000"
 preserveAspectRatio="xMidYMid meet">
<metadata>
Created by potrace 1.14, written by Peter Selinger 2001-2017
</metadata>
<g transform="translate(0.000000,748.000000) scale(0.100000,-0.100000)"
fill="#000000" stroke="none">
<path d="M1876 6968 c-21 -34 -185 -316 -214 -368 -13 -25 -30 -52 -36 -60 -6
-8 -16 -24 -22 -35 -46 -87 -60 -111 -64 -115 -5 -4 -71 -117 -122 -209 -11
-19 -30 -50 -44 -70 -13 -20 -24 -41 -24 -47 0 -6 -7 -17 -15 -24 -8 -7 -12
-16 -9 -21 3 -5 1 -9 -3 -9 -5 0 -20 -21 -33 -47 -14 -27 -27 -50 -30 -53 -3
-3 -43 -70 -89 -150 -46 -80 -94 -161 -106 -180 -12 -19 -42 -69 -65 -110 -75
-131 -140 -242 -191 -329 -27 -46 -49 -88 -49 -92 0 -5 -4 -9 -8 -9 -5 0 -14
-16 -22 -35 -8 -19 -17 -35 -21 -35 -4 0 -10 -9 -14 -19 -3 -11 -17 -36 -30
-55 -13 -20 -22 -36 -18 -36 3 0 -1 -8 -9 -17 -8 -10 -30 -45 -49 -78 -46 -81
-36 -63 -199 -342 -80 -135 -147 -251 -149 -257 -2 -6 -13 -21 -24 -33 -11
-13 -18 -23 -15 -23 6 0 -79 -149 -99 -176 -4 -5 -16 -26 -27 -45 -10 -19 -31
-56 -46 -84 -30 -53 -29 -59 9 -120 11 -16 32 -52 47 -80 14 -27 35 -62 46
-77 11 -16 16 -28 12 -28 -4 0 0 -8 8 -17 8 -10 35 -54 58 -98 24 -44 46 -84
50 -90 8 -11 48 -82 88 -155 13 -25 41 -74 62 -110 82 -140 102 -176 113 -202
6 -16 15 -28 19 -28 4 0 8 -4 8 -9 0 -8 73 -142 116 -211 8 -14 23 -41 32 -60
9 -19 20 -36 25 -38 4 -2 7 -7 7 -11 0 -4 32 -63 70 -130 39 -68 70 -127 70
-132 0 -5 3 -9 8 -9 4 0 16 -20 27 -45 11 -25 22 -45 26 -45 4 0 9 -8 12 -17
3 -10 23 -48 44 -85 87 -153 162 -286 188 -333 15 -27 31 -54 35 -60 4 -5 21
-35 38 -65 16 -30 46 -84 67 -120 20 -36 50 -87 65 -115 15 -27 42 -75 60
-105 17 -30 36 -67 43 -82 6 -16 15 -28 19 -28 4 0 8 -4 8 -9 0 -8 64 -125 99
-181 8 -14 16 -27 16 -30 0 -3 8 -16 17 -30 9 -14 29 -48 45 -77 15 -28 53
-96 84 -150 30 -54 58 -106 62 -116 6 -17 82 -17 1624 -12 890 3 1625 6 1633
6 154 0 401 1 454 2 64 2 71 4 85 29 69 118 208 357 217 373 11 21 74 130 192
333 40 68 72 125 72 127 0 3 16 29 35 59 19 30 35 60 35 66 0 5 3 10 8 10 4 0
18 23 31 50 14 28 29 50 34 50 4 0 6 4 2 9 -3 5 2 16 10 24 8 9 15 18 15 21 0
3 15 29 33 58 17 29 41 69 52 90 20 36 105 186 135 237 9 14 32 54 53 89 20
35 37 65 37 67 0 3 15 28 33 57 19 29 47 78 64 108 16 30 50 89 74 130 25 41
48 82 52 90 4 8 21 38 37 65 16 28 34 59 40 70 6 11 19 34 29 50 11 17 32 53
46 80 15 28 32 57 39 65 6 8 20 33 31 55 11 22 22 42 26 45 3 3 20 32 38 65
18 33 36 65 41 70 4 6 18 30 32 55 14 25 51 90 83 145 32 55 65 114 74 130 9
17 19 32 24 33 4 2 7 7 7 12 0 5 27 54 60 110 47 80 58 105 49 116 -6 8 -8 14
-4 14 5 0 1 8 -7 18 -9 9 -27 38 -42 65 -58 105 -80 144 -103 179 -12 21 -23
40 -23 43 0 4 -13 26 -30 49 -16 24 -26 46 -23 50 4 3 1 6 -5 6 -7 0 -12 4
-12 10 0 5 -20 43 -45 83 -25 41 -45 80 -45 86 0 6 -4 11 -9 11 -5 0 -11 8
-14 18 -4 9 -18 37 -33 62 -15 25 -35 60 -45 78 -11 17 -27 47 -38 65 -10 17
-32 56 -50 85 -17 29 -31 57 -31 62 0 6 -4 10 -10 10 -5 0 -10 4 -10 9 0 5
-27 55 -60 111 -33 56 -60 104 -60 106 0 3 -16 30 -35 60 -19 30 -35 61 -35
69 0 8 -4 15 -10 15 -5 0 -16 15 -25 33 -8 17 -25 50 -38 72 -43 72 -140 239
-165 285 -14 25 -32 53 -40 63 -8 9 -11 17 -7 17 4 0 1 8 -7 18 -8 9 -39 60
-68 112 -29 52 -60 103 -68 113 -8 9 -11 17 -7 17 4 0 1 8 -7 18 -9 9 -27 38
-42 65 -14 26 -38 68 -52 95 -15 26 -33 54 -40 63 -8 8 -14 19 -14 23 0 5 -26
51 -57 104 -63 106 -69 116 -105 182 -13 25 -31 56 -39 70 -36 59 -89 148
-112 191 -14 25 -63 111 -109 190 l-84 144 -1857 3 -1857 2 -14 -22z"/>
</g>
</svg>
