<?xml version="1.0" standalone="no"?>
<!DOCTYPE svg PUBLIC "-//W3C//DTD SVG 20010904//EN"
 "http://www.w3.org/TR/2001/REC-SVG-20010904/DTD/svg10.dtd">
<svg version="1.0" xmlns="http://www.w3.org/2000/svg"
 width="512.000000pt" height="512.000000pt" viewBox="0 0 512.000000 512.000000"
 preserveAspectRatio="xMidYMid meet">
<metadata>
Created by potrace 1.14, written by Peter Selinger 2001-2017
</metadata>
<g transform="translate(0.000000,512.000000) scale(0.100000,-0.100000)"
fill="#000000" stroke="none">
<path d="M2675 4800 c-249 -17 -418 -41 -505 -70 -47 -16 -116 -37 -155 -46
-38 -8 -101 -31 -139 -50 -39 -19 -75 -34 -81 -34 -16 0 -242 -115 -264 -133
-9 -8 -36 -25 -61 -37 -25 -13 -61 -37 -82 -54 -20 -17 -50 -40 -66 -51 -109
-72 -274 -227 -378 -356 -99 -122 -132 -167 -150 -201 -9 -18 -33 -58 -53 -88
-20 -30 -43 -71 -50 -90 -8 -19 -25 -51 -38 -71 -37 -56 -115 -278 -153 -434
-12 -49 -29 -117 -37 -150 -11 -42 -17 -140 -20 -332 -6 -289 2 -402 37 -533
11 -41 29 -120 41 -175 11 -55 32 -120 45 -144 13 -24 31 -71 40 -105 8 -34
28 -79 43 -101 15 -22 38 -66 50 -97 13 -32 30 -63 38 -70 8 -6 28 -37 44 -67
36 -67 87 -143 128 -191 141 -164 184 -210 257 -273 158 -136 252 -208 325
-246 30 -16 61 -36 68 -45 7 -8 38 -25 69 -36 30 -12 68 -30 83 -41 16 -11 61
-31 101 -45 40 -13 93 -35 118 -48 25 -13 79 -31 121 -40 42 -8 110 -27 150
-41 213 -75 917 -77 1119 -4 30 12 97 31 149 45 52 13 115 34 140 47 25 14 72
32 104 41 31 9 78 30 104 46 25 16 67 36 94 45 26 9 53 23 61 32 7 9 35 26 62
39 27 12 72 39 100 59 28 19 67 47 86 60 19 14 48 33 64 42 16 10 76 59 134
108 57 50 115 98 128 108 19 15 24 28 24 65 0 43 -4 50 -77 126 -43 45 -116
123 -163 174 -47 51 -114 123 -149 160 -35 37 -79 86 -98 110 -20 23 -44 42
-55 42 -32 0 -81 -25 -119 -61 -34 -33 -50 -46 -184 -143 -33 -24 -85 -55
-115 -68 -30 -14 -61 -32 -68 -41 -8 -9 -37 -23 -65 -32 -29 -10 -83 -32 -122
-50 -43 -21 -104 -40 -160 -49 -49 -8 -112 -23 -140 -31 -78 -26 -292 -31
-385 -10 -41 9 -124 27 -185 40 -73 15 -138 36 -194 64 -47 22 -90 41 -97 41
-6 0 -29 14 -50 31 -22 17 -57 40 -79 51 -35 18 -64 40 -129 98 -36 33 -80 76
-100 99 -12 13 -38 42 -59 64 -20 23 -37 45 -37 51 0 5 -18 32 -39 60 -22 28
-48 71 -59 96 -10 25 -31 62 -45 83 -14 21 -31 64 -37 95 -7 31 -25 89 -40
129 -63 158 -68 580 -9 741 12 31 32 95 46 141 13 47 33 96 42 110 10 15 33
53 50 86 55 103 159 245 216 293 10 9 35 33 55 53 19 20 44 42 56 47 12 6 41
28 65 48 24 20 60 44 79 52 19 8 47 25 62 37 15 13 58 33 95 45 37 13 92 34
122 48 166 77 658 80 836 5 33 -13 86 -33 117 -44 70 -22 110 -43 127 -63 7
-8 35 -22 62 -31 27 -9 67 -32 90 -51 22 -19 45 -34 49 -34 5 0 30 -18 55 -40
25 -22 49 -40 53 -40 4 0 42 -34 85 -75 116 -111 159 -128 196 -77 39 53 96
125 141 177 25 29 68 81 95 115 28 35 62 74 76 89 15 14 35 40 45 56 20 32 57
75 117 135 33 32 38 43 33 67 -10 45 -35 75 -116 141 -41 34 -93 77 -115 95
-22 19 -54 41 -71 50 -17 9 -37 23 -44 32 -8 9 -41 30 -74 47 -34 17 -70 38
-81 48 -11 10 -48 30 -83 43 -34 14 -74 35 -89 47 -14 11 -51 27 -82 36 -31 9
-76 28 -101 42 -24 14 -92 38 -150 53 -58 15 -130 36 -160 47 -52 19 -206 41
-425 62 -110 10 -148 10 -310 0z"/>
</g>
</svg>
